<?xml version="1.0" encoding="UTF-8" standalone="no"?>
<svg width="200px" height="205px" viewBox="0 0 200 205" version="1.1" xmlns="http://www.w3.org/2000/svg" xmlns:xlink="http://www.w3.org/1999/xlink">
    <!-- Generator: Sketch 3.8.3 (29802) - http://www.bohemiancoding.com/sketch -->
    <title>Group</title>
    <desc>Created with Sketch.</desc>
    <defs>
        <linearGradient x1="50%" y1="-337.252817%" x2="50%" y2="166.34946%" id="linearGradient-1">
            <stop stop-color="#F5DD9A" offset="0%"></stop>
            <stop stop-color="#CFA23A" offset="100%"></stop>
        </linearGradient>
    </defs>
    <g id="Paginas" stroke="none" stroke-width="1" fill="none" fill-rule="evenodd">
        <g id="Home" transform="translate(-860.000000, -84.000000)">
            <g id="Group" transform="translate(860.000000, 84.000000)">
                <path d="M93.8271605,30.7059337 L93.8271605,39.1095182 L107.160494,39.1095182 L107.160494,30.7059337 L93.8271605,30.7059337 Z M90.3703704,30.7059337 L90.3703704,39.1095182 L90.3630905,39.1095182 L90.3630905,42.5663083 L110.624564,42.5663083 L110.624564,39.1095182 L110.617284,39.1095182 L110.617284,30.7059337 L110.624564,30.7059337 L110.624564,27.2491436 L110.617284,27.2491436 L110.617284,27.2479007 L107.160494,27.2479007 L107.160494,27.2491436 L90.3630905,27.2491436 L90.3630905,30.7059337 L90.3703704,30.7059337 Z" id="Combined-Shape" fill="#D8B051"></path>
                <path d="M102.222222,68.7579688 L102.222222,109.777583 L102.236782,109.777583 L102.236782,113.234374 L102.222222,113.234374 L100.493827,113.235616 L97.2839506,113.235616 L66.6675886,113.234374 L63.4567901,113.235616 L61.7283951,113.235616 L61.7138354,113.234374 L61.7138354,109.777583 L61.7283951,109.777583 L61.7283951,68.7579688 L61.7138354,68.7579688 L61.7138354,65.3011787 L61.7283951,65.3011787 L63.4567901,65.2999358 L66.6666667,65.2999358 L97.2830287,65.3011787 L100.493827,65.2999358 L102.222222,65.2999358 L102.236782,65.3011787 L102.236782,68.7579688 L102.222222,68.7579688 Z M94.7190077,68.7579688 L81.9753086,85.9389094 L69.2316096,68.7579688 L94.7190077,68.7579688 Z M94.7190077,109.777583 L81.9753086,92.5966428 L69.2316096,109.777583 L94.7190077,109.777583 Z M65.1851852,108.575203 L65.1851852,69.9603492 L79.5061728,89.2677761 L65.1851852,108.575203 Z M98.7654321,69.9603492 L98.7654321,108.575203 L84.4444444,89.2677761 L98.7654321,69.9603492 Z" id="Combined-Shape" fill="#D8B051"></path>
                <path d="M139.259259,68.7579688 L139.259259,109.777583 L139.273819,109.777583 L139.273819,113.234374 L139.259259,113.234374 L137.530864,113.235616 L134.320988,113.235616 L103.704626,113.234374 L100.493827,113.235616 L98.7654321,113.235616 L98.7508724,113.234374 L98.7508724,109.777583 L98.7654321,109.777583 L98.7654321,68.7579688 L98.7508724,68.7579688 L98.7508724,65.3011787 L98.7654321,65.3011787 L100.493827,65.2999358 L103.703704,65.2999358 L134.320066,65.3011787 L137.530864,65.2999358 L139.259259,65.2999358 L139.273819,65.3011787 L139.273819,68.7579688 L139.259259,68.7579688 Z M131.756045,68.7579688 L119.012346,85.9389094 L106.268647,68.7579688 L131.756045,68.7579688 Z M131.756045,109.777583 L119.012346,92.5966428 L106.268647,109.777583 L131.756045,109.777583 Z M102.222222,108.575203 L102.222222,69.9603492 L116.54321,89.2677761 L102.222222,108.575203 Z M135.802469,69.9603492 L135.802469,108.575203 L121.481481,89.2677761 L135.802469,69.9603492 Z" id="Combined-Shape" fill="#D8B051"></path>
                <path d="M14.4473343,154.489007 C12.3898789,154.489007 10.4794133,154.245785 8.71588011,153.759333 C6.95234691,153.272881 5.4262353,152.486652 4.13749951,151.40062 C2.84876371,150.314588 1.83700824,148.911819 1.10220274,147.192269 C0.367397238,145.472719 0,143.379877 0,140.91368 C0,138.447483 0.367397238,136.354641 1.10220274,134.635091 C1.83700824,132.915541 2.84876371,131.512771 4.13749951,130.426739 C5.4262353,129.340708 6.95234691,128.554478 8.71588011,128.068026 C10.4794133,127.581575 12.3898789,127.338353 14.4473343,127.338353 C15.8265077,127.338353 17.047397,127.519355 18.1100388,127.881366 L18.1100388,132.22547 C17.6578508,131.908711 17.1152334,131.637207 16.4821702,131.410951 C15.849107,131.184694 15.1708351,131.071567 14.4473343,131.071567 C11.8698627,131.071567 9.8463518,131.886079 8.3767408,133.515126 C6.90712981,135.144174 6.17233533,137.610334 6.17233533,140.91368 C6.17233533,142.610604 6.37581688,144.086906 6.78278608,145.34263 C7.18975528,146.598354 7.77193859,147.633463 8.52935349,148.447986 C9.28676839,149.26251 10.1967831,149.862081 11.2594249,150.246717 C12.3220667,150.631353 13.5090424,150.801043 14.8203876,150.755792 L14.8203876,144.443265 C14.8203876,143.470361 14.7525604,142.678475 14.616904,142.067583 C14.4812476,141.45669 14.1308072,140.868431 13.5655722,140.30279 L21.0266368,140.30279 L21.0266368,153.470857 C20.0544326,153.832868 19.0200681,154.093059 17.9235122,154.251439 C16.8269563,154.409818 15.6682419,154.489007 14.4473343,154.489007 L14.4473343,154.489007 Z M50.0249578,127.575921 L57.5199364,150.246717 C57.6782022,150.721856 57.8364657,151.151737 57.9947315,151.536373 C58.1529973,151.921009 58.3282175,152.271702 58.5203974,152.588461 C58.7125773,152.90522 58.9330156,153.193693 59.181719,153.453888 C59.4304224,153.714083 59.7356447,153.979931 60.0973951,154.251439 L51.5171708,154.251439 C51.92414,153.663172 52.0824034,153.057944 51.9919658,152.435739 C51.9015282,151.813533 51.7093512,151.061241 51.415429,150.178841 L49.95713,145.732921 L42.4960653,145.732921 L41.2751638,150.178841 C41.0264604,151.083867 40.8738492,151.841815 40.8173257,152.452708 C40.7608022,153.063601 40.947327,153.663172 41.3769056,154.251439 L35.2723981,154.251439 C35.9506801,153.731049 36.4480794,153.171072 36.764611,152.571492 C37.0811426,151.971912 37.3750604,151.196995 37.6463732,150.246717 L42.8352046,131.580642 C43.083908,130.720867 43.2252146,129.985544 43.2591287,129.374652 C43.2930428,128.763759 43.1065181,128.164188 42.6995489,127.575921 L50.0249578,127.575921 Z M48.7362285,142.101521 L45.9213722,133.515126 L43.5134832,142.101521 L48.7362285,142.101521 Z M82.5842415,127.575921 C82.3355381,127.802177 82.1377088,128.039743 81.9907477,128.288625 C81.8437866,128.537508 81.7137845,128.786386 81.6007375,129.035268 C81.4198623,129.623536 81.3294261,130.471985 81.3294261,131.580642 L81.3294261,150.246717 L81.3294261,150.620039 L87.4339335,150.620039 C88.6548411,150.620039 89.5365945,150.529537 90.0792201,150.348532 C90.6218457,150.122276 91.096636,149.794208 91.5036052,149.364321 L90.3505316,154.251439 L74.0040171,154.251439 C74.4788145,153.7763 74.7953414,153.301168 74.9536072,152.826029 C75.1570918,152.328265 75.2588325,151.445877 75.2588325,150.178841 L75.2588325,131.648519 C75.2588325,130.404108 75.1570918,129.52172 74.9536072,129.00133 C74.7953414,128.526191 74.4788145,128.05106 74.0040171,127.575921 L82.5842415,127.575921 Z M113.176517,127.575921 C114.668738,127.575921 116.087456,127.734298 117.432715,128.051057 C118.777975,128.367816 119.959298,128.859917 120.976721,129.527374 C121.994144,130.194831 122.802418,131.031968 123.401567,132.03881 C124.000716,133.045651 124.300286,134.227824 124.300286,135.585364 C124.300286,136.942903 124.000716,138.125076 123.401567,139.131918 C122.802418,140.13876 121.994144,140.975897 120.976721,141.643354 C119.959298,142.31081 118.777975,142.802911 117.432715,143.11967 C116.087456,143.43643 114.668738,143.594807 113.176517,143.594807 L113.074775,143.594807 L113.074775,150.246717 C113.074775,151.355374 113.165212,152.203824 113.346087,152.792091 C113.459134,153.040973 113.589136,153.289852 113.736097,153.538734 C113.883058,153.787616 114.080887,154.025182 114.329591,154.251439 L105.749366,154.251439 C106.224164,153.7763 106.540691,153.301168 106.698957,152.826029 C106.902441,152.328265 107.004182,151.445877 107.004182,150.178841 L107.004182,131.648519 C107.004182,130.404108 106.902441,129.52172 106.698957,129.00133 C106.540691,128.526191 106.224164,128.05106 105.749366,127.575921 L113.176517,127.575921 Z M113.074775,139.963407 C113.843495,139.963407 114.55568,139.855937 115.211353,139.640993 C115.867026,139.426049 116.432252,139.126264 116.90705,138.741627 C117.381847,138.356991 117.749244,137.898828 118.009252,137.367125 C118.26926,136.835423 118.399262,136.241508 118.399262,135.585364 C118.399262,134.92922 118.26926,134.335305 118.009252,133.803602 C117.749244,133.271899 117.381847,132.813736 116.90705,132.4291 C116.432252,132.044464 115.867026,131.744679 115.211353,131.529735 C114.55568,131.314791 113.843495,131.207321 113.074775,131.207321 L113.074775,131.580642 L113.074775,139.963407 Z M151.467255,154.489007 C149.477628,154.489007 147.702817,154.076095 146.142768,153.250258 C144.582719,152.424422 143.265742,151.366688 142.191795,150.077026 C141.117849,148.787363 140.29827,147.339343 139.733035,145.732921 C139.1678,144.126499 138.885187,142.520101 138.885187,140.91368 C138.885187,139.329884 139.1678,137.729142 139.733035,136.111408 C140.29827,134.493673 141.117849,133.03434 142.191795,131.733365 C143.265742,130.432389 144.582719,129.374656 146.142768,128.560132 C147.702817,127.745608 149.477628,127.338353 151.467255,127.338353 C153.456882,127.338353 155.237346,127.745608 156.808699,128.560132 C158.380052,129.374656 159.69703,130.432389 160.759672,131.733365 C161.822314,133.03434 162.63624,134.493673 163.201475,136.111408 C163.76671,137.729142 164.049323,139.329884 164.049323,140.91368 C164.049323,142.497476 163.76671,144.092561 163.201475,145.698983 C162.63624,147.305404 161.822314,148.759081 160.759672,150.060056 C159.69703,151.361032 158.385705,152.424422 156.825656,153.250258 C155.265608,154.076095 153.490796,154.489007 151.501169,154.489007 L151.467255,154.489007 Z M151.501169,150.857607 C152.382936,150.857607 153.219471,150.597416 154.0108,150.077026 C154.802129,149.556635 155.491705,148.849594 156.07955,147.955881 C156.667394,147.062167 157.13088,146.01009 157.470021,144.799617 C157.809162,143.589144 157.97873,142.293845 157.97873,140.91368 C157.97873,139.533515 157.809162,138.243871 157.470021,137.044711 C157.13088,135.845552 156.667394,134.793474 156.07955,133.888448 C155.491705,132.983422 154.802129,132.270724 154.0108,131.750334 C153.219471,131.229944 152.371631,130.969753 151.467255,130.969753 C150.562879,130.969753 149.715039,131.229944 148.92371,131.750334 C148.132381,132.270724 147.442805,132.983422 146.854961,133.888448 C146.267116,134.793474 145.80363,135.845552 145.464489,137.044711 C145.125348,138.243871 144.95578,139.533515 144.95578,140.91368 C144.95578,142.271219 145.125348,143.555206 145.464489,144.765679 C145.80363,145.976152 146.267116,147.028229 146.854961,147.921942 C147.442805,148.815656 148.132381,149.528353 148.92371,150.060056 C149.715039,150.591759 150.562879,150.857607 151.467255,150.857607 L151.501169,150.857607 Z M156.215205,121.636715 L151.433341,125.403868 L148.957624,125.403868 L151.263772,121.636715 L156.215205,121.636715 Z M184.399592,127.575921 L195.150308,145.970489 L195.150308,131.580642 C195.150308,130.426734 195.048567,129.578284 194.845083,129.035268 C194.664207,128.469627 194.347681,127.983183 193.895493,127.575921 L200,127.575921 C199.570421,128.005808 199.253895,128.48094 199.05041,129.00133 C198.869535,129.544346 198.779099,130.426733 198.779099,131.648519 L198.779099,150.178841 C198.779099,151.400626 198.869535,152.283014 199.05041,152.826029 C199.253895,153.34642 199.570421,153.821551 200,154.251439 L193.895493,154.251439 L183.178691,135.85687 L183.178691,150.178841 C183.178691,151.491129 183.269127,152.373516 183.450002,152.826029 C183.608268,153.301168 183.924795,153.7763 184.399592,154.251439 L178.295085,154.251439 C178.747273,153.798926 179.063799,153.312481 179.244675,152.792091 C179.448159,152.249075 179.5499,151.400626 179.5499,150.246717 L179.5499,131.580642 C179.5499,130.426734 179.448159,129.578284 179.244675,129.035268 C179.063799,128.537504 178.747273,128.05106 178.295085,127.575921 L184.399592,127.575921 Z" id="GALPÓN" fill="url(#linearGradient-1)"></path>
                <path d="M71.8774321,162.653844 C72.6266983,162.653844 73.3390582,162.733367 74.0145331,162.892417 C74.690008,163.051467 75.2831683,163.298558 75.7940316,163.633698 C76.304895,163.968838 76.7107415,164.389177 77.0115832,164.894727 C77.312425,165.400278 77.4628436,165.993864 77.4628436,166.675505 C77.4628436,167.550278 77.2301205,168.274511 76.7646672,168.848225 C76.2992139,169.42194 75.686187,169.86216 74.9255683,170.168898 L76.7816959,174.037191 C77.0428038,174.605225 77.2925555,175.031245 77.5309584,175.315262 C77.7693613,175.587918 78.05317,175.832169 78.3823931,176.048022 L74.7041952,176.048022 L72.1158338,170.697167 L71.8774321,170.697167 L71.826346,170.697167 L71.826346,174.037191 C71.826346,174.593865 71.8717554,175.019884 71.9625755,175.315262 C72.0193381,175.440229 72.0846141,175.565195 72.1584055,175.690162 C72.2321969,175.81513 72.33153,175.934415 72.4564077,176.048022 L68.1481481,176.048022 C68.3865511,175.809448 68.5454839,175.570877 68.6249516,175.332303 C68.7271242,175.082368 68.7782098,174.639308 68.7782098,174.003109 L68.7782098,164.698757 C68.7782098,164.073919 68.7271242,163.630859 68.6249516,163.369563 C68.5454839,163.130989 68.3865511,162.892418 68.1481481,162.653844 L71.8774321,162.653844 Z M71.826346,168.873787 C72.2123316,168.873787 72.5699306,168.819824 72.8991537,168.711898 C73.2283768,168.603971 73.5121855,168.453444 73.7505884,168.260313 C73.9889913,168.067181 74.173467,167.837131 74.3040209,167.570155 C74.4345749,167.303179 74.4998509,167.004965 74.4998509,166.675505 C74.4998509,166.346046 74.4345749,166.047832 74.3040209,165.780856 C74.173467,165.51388 73.9889913,165.28383 73.7505884,165.090698 C73.5121855,164.897567 73.2283768,164.74704 72.8991537,164.639113 C72.5699306,164.531187 72.2123316,164.477224 71.826346,164.477224 L71.826346,164.664675 L71.826346,168.873787 Z M91.7450525,171.208395 C91.7450525,171.890036 91.6145005,172.531905 91.3533925,173.134021 C91.0922846,173.736138 90.7375237,174.261561 90.2890992,174.710308 C89.8406747,175.159055 89.3156285,175.514071 88.713945,175.775367 C88.1122615,176.036663 87.4708538,176.167309 86.7897026,176.167309 C86.1085514,176.167309 85.4671437,176.036663 84.8654602,175.775367 C84.2637767,175.514071 83.7387305,175.159055 83.290306,174.710308 C82.8418815,174.261561 82.4871206,173.736138 82.2260127,173.134021 C81.9649047,172.531905 81.8343527,171.890036 81.8343527,171.208395 L81.8343527,164.698757 C81.8343527,164.073919 81.7832672,163.630859 81.6810945,163.369563 C81.6016268,163.130989 81.442694,162.892418 81.2042911,162.653844 L85.5125506,162.653844 C85.3876729,162.767451 85.2883398,162.886736 85.2145484,163.011704 C85.1407571,163.136671 85.075481,163.261637 85.0187185,163.386604 C84.9278983,163.681982 84.8824889,164.108001 84.8824889,164.664675 L84.8824889,172.435343 C84.8824889,172.696639 84.9335745,172.94373 85.0357471,173.176624 C85.1379198,173.409518 85.274148,173.611167 85.4444358,173.781577 C85.6147236,173.951987 85.8162278,174.088313 86.0489544,174.19056 C86.2816811,174.292806 86.5285947,174.343928 86.7897026,174.343928 C87.0508105,174.343928 87.2977241,174.292806 87.5304508,174.19056 C87.7631774,174.088313 87.9646816,173.951987 88.1349694,173.781577 C88.3052572,173.611167 88.4414854,173.409518 88.5436581,173.176624 C88.6458307,172.94373 88.6969163,172.696639 88.6969163,172.435343 L88.6969163,164.698757 C88.6969163,164.08528 88.6515069,163.64222 88.5606867,163.369563 C88.4471616,163.096907 88.2825525,162.858336 88.0668546,162.653844 L92.3751141,162.653844 C92.1367112,162.892418 91.9777784,163.136669 91.8983107,163.386604 C91.8415481,163.522932 91.804653,163.69618 91.7876242,163.906353 C91.7705954,164.116525 91.7620812,164.369297 91.7620812,164.664675 L91.7450525,171.208395 Z M99.7777307,162.653844 C100.526997,162.653844 101.239357,162.733367 101.914832,162.892417 C102.590307,163.051467 103.183467,163.298558 103.69433,163.633698 C104.205194,163.968838 104.61104,164.389177 104.911882,164.894727 C105.212724,165.400278 105.363142,165.993864 105.363142,166.675505 C105.363142,167.550278 105.130419,168.274511 104.664966,168.848225 C104.199513,169.42194 103.586486,169.86216 102.825867,170.168898 L104.681995,174.037191 C104.943102,174.605225 105.192854,175.031245 105.431257,175.315262 C105.66966,175.587918 105.953469,175.832169 106.282692,176.048022 L102.604494,176.048022 L100.016132,170.697167 L99.7777307,170.697167 L99.7266447,170.697167 L99.7266447,174.037191 C99.7266447,174.593865 99.772054,175.019884 99.8628742,175.315262 C99.9196368,175.440229 99.9849128,175.565195 100.058704,175.690162 C100.132496,175.81513 100.231829,175.934415 100.356706,176.048022 L96.0484468,176.048022 C96.2868497,175.809448 96.4457826,175.570877 96.5252502,175.332303 C96.6274229,175.082368 96.6785085,174.639308 96.6785085,174.003109 L96.6785085,164.698757 C96.6785085,164.073919 96.6274229,163.630859 96.5252502,163.369563 C96.4457826,163.130989 96.2868497,162.892418 96.0484468,162.653844 L99.7777307,162.653844 Z M99.7266447,168.873787 C100.11263,168.873787 100.470229,168.819824 100.799452,168.711898 C101.128675,168.603971 101.412484,168.453444 101.650887,168.260313 C101.88929,168.067181 102.073766,167.837131 102.20432,167.570155 C102.334874,167.303179 102.40015,167.004965 102.40015,166.675505 C102.40015,166.346046 102.334874,166.047832 102.20432,165.780856 C102.073766,165.51388 101.88929,165.28383 101.650887,165.090698 C101.412484,164.897567 101.128675,164.74704 100.799452,164.639113 C100.470229,164.531187 100.11263,164.477224 99.7266447,164.477224 L99.7266447,164.664675 L99.7266447,168.873787 Z M115.400725,162.653844 L119.164066,174.037191 C119.243534,174.275766 119.323001,174.491615 119.402468,174.684747 C119.481936,174.877878 119.569917,175.053966 119.666413,175.213016 C119.762909,175.372066 119.873595,175.516912 119.998472,175.64756 C120.12335,175.778208 120.276607,175.911694 120.458247,176.048022 L116.149988,176.048022 C116.354333,175.752644 116.433799,175.448751 116.388389,175.136332 C116.342979,174.823913 116.246484,174.446176 116.098902,174.003109 L115.366668,171.770746 L111.620355,171.770746 L111.007322,174.003109 C110.882444,174.457537 110.805816,174.838114 110.777435,175.144852 C110.749054,175.451591 110.84271,175.752644 111.058408,176.048022 L107.993243,176.048022 C108.333819,175.786726 108.583571,175.505554 108.742506,175.204496 C108.901441,174.903437 109.049022,174.51434 109.185252,174.037191 L111.790642,164.664675 C111.91552,164.232969 111.986472,163.863752 112.003501,163.557014 C112.02053,163.250275 111.926873,162.949222 111.722527,162.653844 L115.400725,162.653844 Z M114.753635,169.947366 L113.340253,165.636008 L112.131216,169.947366 L114.753635,169.947366 Z M127.373305,162.653844 C127.248428,162.767451 127.149095,162.886736 127.075303,163.011704 C127.001512,163.136671 126.936236,163.261637 126.879473,163.386604 C126.788653,163.681982 126.743244,164.108001 126.743244,164.664675 L126.743244,174.037191 L126.743244,174.224642 L129.808409,174.224642 C130.421445,174.224642 130.864186,174.179199 131.136647,174.088314 C131.409107,173.974707 131.647507,173.80998 131.851852,173.594127 L131.272876,176.048022 L123.065046,176.048022 C123.303449,175.809448 123.462382,175.570877 123.541849,175.332303 C123.644022,175.082368 123.695108,174.639308 123.695108,174.003109 L123.695108,164.698757 C123.695108,164.073919 123.644022,163.630859 123.541849,163.369563 C123.462382,163.130989 123.303449,162.892418 123.065046,162.653844 L127.373305,162.653844 Z" id="RURAL" fill="#D4AA47"></path>
                <rect id="Rectangle-65" fill="#D4AA47" x="31.6049383" y="169.078213" width="30.1234568" height="0.988364548"></rect>
                <rect id="Rectangle-65" fill="#D4AA47" x="138.271605" y="169.078213" width="30.1234568" height="0.988364548"></rect>
                <path d="M20.248334,84.7144079 L20.248334,109.282158 L180.245493,109.282158 L180.245493,83.1013287 L180.246883,83.1013287 L180.225122,80.1261279 L183.99197,81.5768232 L157.137346,56.9726749 L132.381969,23.1461637 L100.493104,4.59804068 L68.4652296,23.0862007 L43.7009307,56.9234498 L16.8718654,81.6521088 L20.2498975,80.1261279 L20.2498975,84.7139335 Z M16.2948758,85.9140317 L16.2948758,113.224785 L16.2962963,113.224785 L16.2962963,113.235616 L184.197531,113.235616 L184.197531,113.224785 L184.198951,113.224785 L184.198951,85.9541439 L199.77744,90.5049209 L160.024474,54.2464682 L135.052686,20.1622487 L100.446807,0.0151516011 L65.8169367,20.1533206 L40.6908275,54.4094663 L1.42566069,90.4258952 L16.2948758,85.9140317 Z" id="Combined-Shape" fill="#D8B051"></path>
                <path d="M24.0887945,200.940045 L25.7125899,200.940045 L25.7125899,191.716594 L28.631033,191.716594 L28.631033,190.275659 L21.1703515,190.275659 L21.1703515,191.716594 L24.0887945,191.716594 L24.0887945,200.940045 Z M29.9212041,197.13656 C29.9212041,197.936271 29.987033,198.545798 30.1186927,198.965158 C30.2552288,199.384519 30.4649059,199.747797 30.7477306,200.055003 C30.9574109,200.293941 31.2499837,200.508495 31.6254578,200.69867 C31.9960556,200.90835 32.4714864,201.018065 33.0517646,201.027817 C33.6515478,201.018065 34.1367311,200.90835 34.5073289,200.69867 C34.7072567,200.610897 34.8706098,200.506058 34.9973933,200.384151 C35.1388056,200.276872 35.2582728,200.167158 35.3557986,200.055003 C35.6581283,199.747797 35.8726817,199.384519 35.9994652,198.965158 C36.1213724,198.545798 36.182325,197.936271 36.182325,197.13656 C36.182325,196.336849 36.1213724,195.722446 35.9994652,195.293333 C35.8726817,194.873972 35.6581283,194.520447 35.3557986,194.232746 C35.1558708,193.979179 34.8730504,193.752435 34.5073289,193.552507 C34.1367311,193.362332 33.6515478,193.26237 33.0517646,193.252617 C32.4714864,193.26237 31.9960556,193.362332 31.6254578,193.552507 C31.2499837,193.752435 30.9574109,193.979179 30.7477306,194.232746 C30.4649059,194.520447 30.2552288,194.873972 30.1186927,195.293333 C29.987033,195.722446 29.9212041,196.336849 29.9212041,197.13656 L29.9212041,197.13656 Z M34.6536168,197.151189 C34.6536168,197.668075 34.6292357,198.04842 34.5804728,198.292234 C34.53171,198.540925 34.4317476,198.760354 34.2805827,198.95053 C34.1684281,199.096818 34.0026368,199.226038 33.7832039,199.338193 C33.5735236,199.445471 33.3297129,199.499109 33.0517646,199.499109 C32.7933214,199.499109 32.5543869,199.445471 32.334954,199.338193 C32.1252737,199.226038 31.9546062,199.096818 31.8229464,198.95053 C31.6912867,198.760354 31.5962005,198.540925 31.5376851,198.292234 C31.4791696,198.04842 31.4499124,197.663199 31.4499124,197.13656 C31.4499124,196.605045 31.4791696,196.214948 31.5376851,195.966257 C31.5962005,195.727319 31.6912867,195.517642 31.8229464,195.337219 C31.9546062,195.166549 32.1252737,195.032453 32.334954,194.934928 C32.5543869,194.832526 32.7933214,194.781325 33.0517646,194.781325 C33.3297129,194.781325 33.5735236,194.832526 33.7832039,194.934928 C34.0026368,195.032453 34.1684281,195.166549 34.2805827,195.337219 C34.4317476,195.517642 34.53171,195.727319 34.5804728,195.966257 C34.6292357,196.214948 34.6536168,196.609921 34.6536168,197.151189 L34.6536168,197.151189 Z M44.4869996,200.142776 L44.4869996,200.940045 L46.0157079,200.940045 L46.0157079,190.275659 L44.4869996,190.275659 L44.4869996,194.152287 C44.204175,193.884092 43.9091641,193.664662 43.601958,193.493992 C43.2703705,193.333075 42.9095307,193.252617 42.5194278,193.252617 C41.5929333,193.276998 40.9151396,193.608581 40.4860263,194.247375 C40.276346,194.486313 40.1373739,194.800828 40.0691059,195.190931 C39.986209,195.576158 39.9447612,196.224694 39.9447612,197.13656 C39.9447612,198.033797 39.986209,198.677457 40.0691059,199.06756 C40.1373739,199.477168 40.276346,199.801436 40.4860263,200.040374 C40.7152118,200.332952 41.0004703,200.56701 41.3418104,200.742556 C41.6685216,200.922979 42.0610568,201.018065 42.5194278,201.027817 C43.3288914,201.008312 43.9847421,200.713301 44.4869996,200.142776 L44.4869996,200.142776 Z M42.9875489,194.781325 C43.3483942,194.781325 43.6336527,194.85203 43.843333,194.993443 C44.0530133,195.134855 44.1968616,195.320151 44.2748822,195.549337 C44.372408,195.778522 44.4382368,196.027209 44.4723708,196.295405 C44.4821234,196.563601 44.4869996,196.843983 44.4869996,197.13656 C44.4869996,197.404756 44.4821234,197.677824 44.4723708,197.955772 C44.4382368,198.238597 44.372408,198.494598 44.2748822,198.723783 C44.1968616,198.952969 44.0530133,199.138265 43.843333,199.279677 C43.6336527,199.425966 43.3483942,199.499109 42.9875489,199.499109 C42.6267037,199.499109 42.3511977,199.430842 42.1610225,199.294306 C41.9513421,199.152894 41.7977414,198.972474 41.7002157,198.753041 C41.6075662,198.523856 41.5466135,198.265416 41.5173558,197.977715 C41.4880981,197.704643 41.4734695,197.424261 41.4734695,197.13656 C41.4734695,196.83423 41.4880981,196.539219 41.5173558,196.251518 C41.5466135,195.983323 41.6075662,195.734636 41.7002157,195.50545 C41.7977414,195.276265 41.9513421,195.095845 42.1610225,194.964185 C42.3511977,194.842278 42.6267037,194.781325 42.9875489,194.781325 L42.9875489,194.781325 Z M49.5075115,197.13656 C49.5075115,197.936271 49.5733404,198.545798 49.7050001,198.965158 C49.8415362,199.384519 50.0512134,199.747797 50.334038,200.055003 C50.5437183,200.293941 50.8362911,200.508495 51.2117652,200.69867 C51.582363,200.90835 52.0577938,201.018065 52.638072,201.027817 C53.2378552,201.018065 53.7230385,200.90835 54.0936363,200.69867 C54.2935641,200.610897 54.4569172,200.506058 54.5837007,200.384151 C54.725113,200.276872 54.8445802,200.167158 54.942106,200.055003 C55.2444357,199.747797 55.4589891,199.384519 55.5857726,198.965158 C55.7076798,198.545798 55.7686324,197.936271 55.7686324,197.13656 C55.7686324,196.336849 55.7076798,195.722446 55.5857726,195.293333 C55.4589891,194.873972 55.2444357,194.520447 54.942106,194.232746 C54.7421782,193.979179 54.4593578,193.752435 54.0936363,193.552507 C53.7230385,193.362332 53.2378552,193.26237 52.638072,193.252617 C52.0577938,193.26237 51.582363,193.362332 51.2117652,193.552507 C50.8362911,193.752435 50.5437183,193.979179 50.334038,194.232746 C50.0512134,194.520447 49.8415362,194.873972 49.7050001,195.293333 C49.5733404,195.722446 49.5075115,196.336849 49.5075115,197.13656 L49.5075115,197.13656 Z M54.2399242,197.151189 C54.2399242,197.668075 54.2155431,198.04842 54.1667802,198.292234 C54.1180174,198.540925 54.018055,198.760354 53.8668901,198.95053 C53.7547355,199.096818 53.5889442,199.226038 53.3695113,199.338193 C53.159831,199.445471 52.9160203,199.499109 52.638072,199.499109 C52.3796288,199.499109 52.1406943,199.445471 51.9212614,199.338193 C51.7115811,199.226038 51.5409136,199.096818 51.4092538,198.95053 C51.2775941,198.760354 51.1825079,198.540925 51.1239925,198.292234 C51.0654771,198.04842 51.0362198,197.663199 51.0362198,197.13656 C51.0362198,196.605045 51.0654771,196.214948 51.1239925,195.966257 C51.1825079,195.727319 51.2775941,195.517642 51.4092538,195.337219 C51.5409136,195.166549 51.7115811,195.032453 51.9212614,194.934928 C52.1406943,194.832526 52.3796288,194.781325 52.638072,194.781325 C52.9160203,194.781325 53.159831,194.832526 53.3695113,194.934928 C53.5889442,195.032453 53.7547355,195.166549 53.8668901,195.337219 C54.018055,195.517642 54.1180174,195.727319 54.1667802,195.966257 C54.2155431,196.214948 54.2399242,196.609921 54.2399242,197.151189 L54.2399242,197.151189 Z M65.2830198,204.01209 L66.8117281,204.01209 L66.8117281,200.128147 C67.0896765,200.401219 67.3944398,200.615772 67.7260273,200.771814 C68.0332334,200.942484 68.3818827,201.027817 68.7719856,201.027817 C69.2449854,201.018065 69.6497112,200.922979 69.9861749,200.742556 C70.327515,200.56701 70.6030211,200.332952 70.8127014,200.040374 C71.0223818,199.791684 71.1662301,199.472292 71.2442506,199.082189 C71.3173949,198.692086 71.3539665,198.048426 71.3539665,197.151189 C71.3539665,196.229571 71.3173949,195.576158 71.2442506,195.190931 C71.1662301,194.800828 71.0223818,194.486313 70.8127014,194.247375 C70.3835882,193.608581 69.7033564,193.276998 68.7719856,193.252617 C67.9722746,193.276998 67.3188619,193.572009 66.8117281,194.137659 L66.8117281,193.347704 L65.2830198,193.347704 L65.2830198,204.01209 Z M68.3111788,199.499109 C67.9698387,199.499109 67.6992089,199.425966 67.4992811,199.279677 C67.2896008,199.138265 67.136,198.952969 67.0384743,198.723783 C66.9458249,198.494598 66.8848722,198.238597 66.8556145,197.955772 C66.8263568,197.687576 66.8117281,197.419385 66.8117281,197.151189 C66.8117281,196.863488 66.8263568,196.578229 66.8556145,196.295405 C66.8848722,196.027209 66.9458249,195.778522 67.0384743,195.549337 C67.136,195.320151 67.2896008,195.134855 67.4992811,194.993443 C67.6992089,194.85203 67.9698387,194.781325 68.3111788,194.781325 C68.672024,194.781325 68.9572825,194.842278 69.1669629,194.964185 C69.3766432,195.095845 69.5253677,195.276265 69.6131409,195.50545 C69.7106666,195.724883 69.7764955,195.978446 69.8106295,196.266147 C69.8203821,196.553848 69.8252583,196.848859 69.8252583,197.151189 C69.8252583,197.43889 69.8203821,197.719272 69.8106295,197.992344 C69.7764955,198.270292 69.7106666,198.523856 69.6131409,198.753041 C69.5253677,198.972474 69.3766432,199.152894 69.1669629,199.294306 C68.9572825,199.430842 68.672024,199.499109 68.3111788,199.499109 L68.3111788,199.499109 Z M79.2051487,200.940045 L80.733857,200.940045 L80.733857,195.75414 C80.7241044,194.827645 80.4339697,194.174233 79.8634442,193.793882 C79.2929186,193.423284 78.5297912,193.242864 77.574039,193.252617 C76.4427404,193.233112 75.5869649,193.603704 75.0066868,194.364405 L76.2062474,195.278704 C76.3379071,195.059271 76.518327,194.903232 76.7475125,194.810583 C76.9669454,194.732562 77.2668325,194.693553 77.6471829,194.693553 C78.6955846,194.674047 79.2149013,194.998316 79.2051487,195.666367 L79.2051487,196.463636 L77.091289,196.463636 C76.2818254,196.473388 75.6674225,196.692818 75.2480618,197.121931 C74.8287011,197.541292 74.619024,198.070361 74.619024,198.709155 C74.619024,199.377206 74.8603965,199.92578 75.3431489,200.354893 C75.8015199,200.793759 76.4549325,201.018065 77.3034064,201.027817 C77.8202928,201.027817 78.2250185,200.964427 78.5175957,200.837643 C78.8150492,200.715736 79.0344789,200.525564 79.1758912,200.267121 L79.2051487,200.267121 L79.2051487,200.940045 Z M79.2051487,198.270291 C79.2051487,198.840817 79.0856815,199.206533 78.8467435,199.36745 C78.583424,199.528368 78.1323742,199.603949 77.4935806,199.594196 C76.9864468,199.594196 76.6231689,199.494234 76.403736,199.294306 C76.1745505,199.113884 76.0599595,198.894454 76.0599595,198.636011 C76.0502069,198.04598 76.4890661,197.741217 77.3765503,197.721712 L79.2051487,197.721712 L79.2051487,198.270291 Z M84.8693273,200.940045 L86.3980355,200.940045 L86.3980355,196.368549 C86.4077881,195.812652 86.5687031,195.410364 86.8807855,195.161674 C87.1587338,194.908107 87.4927545,194.781325 87.8828574,194.781325 C88.2290738,194.781325 88.5630944,194.908107 88.8849294,195.161674 L89.9967172,193.837769 C89.5432225,193.457418 89.0117152,193.26237 88.4021794,193.252617 C87.5878395,193.252617 86.9295506,193.552504 86.4272931,194.152287 L86.3980355,194.152287 L86.3980355,193.347704 L84.8693273,193.347704 L84.8693273,200.940045 Z M96.5751949,200.940045 L98.1039032,200.940045 L98.1039032,195.75414 C98.0941506,194.827645 97.8040159,194.174233 97.2334903,193.793882 C96.6629648,193.423284 95.8998373,193.242864 94.9440851,193.252617 C93.8127866,193.233112 92.9570111,193.603704 92.376733,194.364405 L93.5762935,195.278704 C93.7079533,195.059271 93.8883732,194.903232 94.1175586,194.810583 C94.3369915,194.732562 94.6368787,194.693553 95.0172291,194.693553 C96.0656307,194.674047 96.5849475,194.998316 96.5751949,195.666367 L96.5751949,196.463636 L94.4613351,196.463636 C93.6518715,196.473388 93.0374686,196.692818 92.6181079,197.121931 C92.1987473,197.541292 91.9890701,198.070361 91.9890701,198.709155 C91.9890701,199.377206 92.2304427,199.92578 92.7131951,200.354893 C93.171566,200.793759 93.8249787,201.018065 94.6734526,201.027817 C95.190339,201.027817 95.5950647,200.964427 95.8876419,200.837643 C96.1850954,200.715736 96.404525,200.525564 96.5459373,200.267121 L96.5751949,200.267121 L96.5751949,200.940045 Z M96.5751949,198.270291 C96.5751949,198.840817 96.4557277,199.206533 96.2167896,199.36745 C95.9534701,199.528368 95.5024204,199.603949 94.8636268,199.594196 C94.356493,199.594196 93.993215,199.494234 93.7737821,199.294306 C93.5445967,199.113884 93.4300056,198.894454 93.4300056,198.636011 C93.4202531,198.04598 93.8591123,197.741217 94.7465965,197.721712 L96.5751949,197.721712 L96.5751949,198.270291 Z M113.879411,197.721712 L113.879411,196.463636 C113.869659,195.463997 113.560019,194.678927 112.950484,194.108401 C112.3507,193.547628 111.61683,193.26237 110.748851,193.252617 C110.388006,193.252617 110.02229,193.318446 109.651692,193.450106 C109.276218,193.581765 108.937321,193.796319 108.634991,194.093772 C108.337538,194.38635 108.093727,194.786199 107.903552,195.293333 C107.713377,195.790714 107.618291,196.414869 107.618291,197.165818 C107.618291,197.946024 107.728005,198.579931 107.947438,199.06756 C108.147366,199.574694 108.408243,199.969667 108.730078,200.252492 C108.895872,200.389028 109.073854,200.503619 109.264029,200.596268 C109.444452,200.703547 109.629748,200.78888 109.819923,200.852272 C110.200273,200.969303 110.590371,201.027817 110.990226,201.027817 C112.038628,201.03757 112.95048,200.627968 113.725809,199.798999 L112.621336,198.855443 C112.133707,199.347948 111.580257,199.594196 110.960968,199.594196 C110.429453,199.594196 110.000346,199.433281 109.673635,199.111446 C109.322543,198.794488 109.146999,198.331247 109.146999,197.721712 L113.879411,197.721712 Z M109.146999,196.463636 C109.176257,195.873605 109.334733,195.427432 109.622434,195.125102 C109.915012,194.837401 110.29048,194.693553 110.748851,194.693553 C111.207222,194.693553 111.58269,194.837401 111.875268,195.125102 C112.172721,195.427432 112.331198,195.873605 112.350703,196.463636 L109.146999,196.463636 Z M117.641848,199.096818 C117.641848,199.764869 117.83202,200.2403 118.21237,200.523124 C118.573216,200.801073 119.03158,200.940045 119.587476,200.940045 L120.267715,200.940045 L120.267715,199.499109 L119.741079,199.499109 C119.360728,199.499109 119.170556,199.326004 119.170556,198.979787 L119.170556,190.275659 L117.641848,190.275659 L117.641848,199.096818 Z M133.878163,198.709155 C133.492936,199.226041 132.978496,199.489357 132.334826,199.499109 C131.037733,199.523491 130.379445,198.740858 130.359939,197.151189 C130.379445,195.551767 131.037733,194.76182 132.334826,194.781325 C132.978496,194.80083 133.492936,195.066584 133.878163,195.578594 L135.004579,194.576522 C134.672992,194.176667 134.282895,193.857275 133.834276,193.618337 C133.385658,193.384275 132.866341,193.26237 132.276311,193.252617 C131.379074,193.242864 130.591565,193.542752 129.913761,194.152287 C129.211576,194.771576 128.850736,195.7712 128.831231,197.151189 C128.850736,198.516549 129.211576,199.503982 129.913761,200.113518 C130.591565,200.723054 131.379074,201.027817 132.276311,201.027817 C132.866341,201.018065 133.385658,200.888845 133.834276,200.640155 C134.282895,200.401217 134.672992,200.091577 135.004579,199.711227 L133.878163,198.709155 Z M142.212095,200.940045 L143.740803,200.940045 L143.740803,195.75414 C143.731051,194.827645 143.440916,194.174233 142.87039,193.793882 C142.299865,193.423284 141.536737,193.242864 140.580985,193.252617 C139.449687,193.233112 138.593911,193.603704 138.013633,194.364405 L139.213194,195.278704 C139.344853,195.059271 139.525273,194.903232 139.754459,194.810583 C139.973892,194.732562 140.273779,194.693553 140.654129,194.693553 C141.702531,194.674047 142.221848,194.998316 142.212095,195.666367 L142.212095,196.463636 L140.098235,196.463636 C139.288772,196.473388 138.674369,196.692818 138.255008,197.121931 C137.835647,197.541292 137.62597,198.070361 137.62597,198.709155 C137.62597,199.377206 137.867343,199.92578 138.350095,200.354893 C138.808466,200.793759 139.461879,201.018065 140.310353,201.027817 C140.827239,201.027817 141.231965,200.964427 141.524542,200.837643 C141.821995,200.715736 142.041425,200.525564 142.182837,200.267121 L142.212095,200.267121 L142.212095,200.940045 Z M142.212095,198.270291 C142.212095,198.840817 142.092628,199.206533 141.85369,199.36745 C141.59037,199.528368 141.13932,199.603949 140.500527,199.594196 C139.993393,199.594196 139.630115,199.494234 139.410682,199.294306 C139.181497,199.113884 139.066906,198.894454 139.066906,198.636011 C139.057153,198.04598 139.496012,197.741217 140.383497,197.721712 L142.212095,197.721712 L142.212095,198.270291 Z M147.964046,200.940045 L149.492754,200.940045 L149.492754,196.419749 C149.492754,195.888234 149.639041,195.483508 149.931618,195.20556 C150.209566,194.922735 150.567968,194.781325 151.006834,194.781325 C151.4457,194.781325 151.80654,194.922735 152.089364,195.20556 C152.367313,195.483508 152.506285,195.888234 152.506285,196.419749 L152.506285,200.940045 L154.034993,200.940045 L154.034993,196.419749 C154.034993,195.888234 154.178841,195.483508 154.466542,195.20556 C154.749367,194.922735 155.110207,194.781325 155.549072,194.781325 C155.987938,194.781325 156.34634,194.922735 156.624288,195.20556 C156.902237,195.483508 157.041209,195.888234 157.041209,196.419749 L157.041209,200.940045 L158.569917,200.940045 L158.569917,195.893113 C158.550412,195.025134 158.28222,194.366845 157.765334,193.918227 C157.243571,193.474485 156.668178,193.252617 156.039137,193.252617 C155.039498,193.242864 154.242237,193.574447 153.64733,194.247375 C153.384011,193.954797 153.093876,193.713425 152.776917,193.52325 C152.455082,193.35258 152.030852,193.26237 151.504213,193.252617 C150.684997,193.252617 150.02427,193.552504 149.522012,194.152287 L149.492754,194.152287 L149.492754,193.347704 L147.964046,193.347704 L147.964046,200.940045 Z M162.800474,204.01209 L164.329183,204.01209 L164.329183,200.128147 C164.607131,200.401219 164.911894,200.615772 165.243482,200.771814 C165.550688,200.942484 165.899337,201.027817 166.28944,201.027817 C166.76244,201.018065 167.167166,200.922979 167.503629,200.742556 C167.844969,200.56701 168.120476,200.332952 168.330156,200.040374 C168.539836,199.791684 168.683685,199.472292 168.761705,199.082189 C168.834849,198.692086 168.871421,198.048426 168.871421,197.151189 C168.871421,196.229571 168.834849,195.576158 168.761705,195.190931 C168.683685,194.800828 168.539836,194.486313 168.330156,194.247375 C167.901043,193.608581 167.220811,193.276998 166.28944,193.252617 C165.489729,193.276998 164.836316,193.572009 164.329183,194.137659 L164.329183,193.347704 L162.800474,193.347704 L162.800474,204.01209 Z M165.828633,199.499109 C165.487293,199.499109 165.216663,199.425966 165.016736,199.279677 C164.807055,199.138265 164.653455,198.952969 164.555929,198.723783 C164.463279,198.494598 164.402327,198.238597 164.373069,197.955772 C164.343811,197.687576 164.329183,197.419385 164.329183,197.151189 C164.329183,196.863488 164.343811,196.578229 164.373069,196.295405 C164.402327,196.027209 164.463279,195.778522 164.555929,195.549337 C164.653455,195.320151 164.807055,195.134855 165.016736,194.993443 C165.216663,194.85203 165.487293,194.781325 165.828633,194.781325 C166.189478,194.781325 166.474737,194.842278 166.684417,194.964185 C166.894098,195.095845 167.042822,195.276265 167.130595,195.50545 C167.228121,195.724883 167.29395,195.978446 167.328084,196.266147 C167.337837,196.553848 167.342713,196.848859 167.342713,197.151189 C167.342713,197.43889 167.337837,197.719272 167.328084,197.992344 C167.29395,198.270292 167.228121,198.523856 167.130595,198.753041 C167.042822,198.972474 166.894098,199.152894 166.684417,199.294306 C166.474737,199.430842 166.189478,199.499109 165.828633,199.499109 L165.828633,199.499109 Z M172.363225,197.13656 C172.363225,197.936271 172.429054,198.545798 172.560713,198.965158 C172.697249,199.384519 172.906926,199.747797 173.189751,200.055003 C173.399431,200.293941 173.692004,200.508495 174.067478,200.69867 C174.438076,200.90835 174.913507,201.018065 175.493785,201.027817 C176.093568,201.018065 176.578752,200.90835 176.949349,200.69867 C177.149277,200.610897 177.31263,200.506058 177.439414,200.384151 C177.580826,200.276872 177.700293,200.167158 177.797819,200.055003 C178.100149,199.747797 178.314702,199.384519 178.441486,198.965158 C178.563393,198.545798 178.624346,197.936271 178.624346,197.13656 C178.624346,196.336849 178.563393,195.722446 178.441486,195.293333 C178.314702,194.873972 178.100149,194.520447 177.797819,194.232746 C177.597891,193.979179 177.315071,193.752435 176.949349,193.552507 C176.578752,193.362332 176.093568,193.26237 175.493785,193.252617 C174.913507,193.26237 174.438076,193.362332 174.067478,193.552507 C173.692004,193.752435 173.399431,193.979179 173.189751,194.232746 C172.906926,194.520447 172.697249,194.873972 172.560713,195.293333 C172.429054,195.722446 172.363225,196.336849 172.363225,197.13656 L172.363225,197.13656 Z M177.095637,197.151189 C177.095637,197.668075 177.071256,198.04842 177.022493,198.292234 C176.97373,198.540925 176.873768,198.760354 176.722603,198.95053 C176.610449,199.096818 176.444657,199.226038 176.225224,199.338193 C176.015544,199.445471 175.771733,199.499109 175.493785,199.499109 C175.235342,199.499109 174.996407,199.445471 174.776975,199.338193 C174.567294,199.226038 174.396627,199.096818 174.264967,198.95053 C174.133307,198.760354 174.038221,198.540925 173.979706,198.292234 C173.92119,198.04842 173.891933,197.663199 173.891933,197.13656 C173.891933,196.605045 173.92119,196.214948 173.979706,195.966257 C174.038221,195.727319 174.133307,195.517642 174.264967,195.337219 C174.396627,195.166549 174.567294,195.032453 174.776975,194.934928 C174.996407,194.832526 175.235342,194.781325 175.493785,194.781325 C175.771733,194.781325 176.015544,194.832526 176.225224,194.934928 C176.444657,195.032453 176.610449,195.166549 176.722603,195.337219 C176.873768,195.517642 176.97373,195.727319 177.022493,195.966257 C177.071256,196.214948 177.095637,196.609921 177.095637,197.151189 L177.095637,197.151189 Z" id="Todo-para-el-campo-Copy" fill="#CDBB91"></path>
            </g>
        </g>
    </g>
</svg>